# xmcd
#
# Track frame offsets: 
#        150
#        14848
#        35818
#        51341
#        63921
#        76374
#        94094
#        106642
#        120307
#        139231
#        155965
#        172453
#        186519
#        208282
#
# Disc length: 2991 seconds
#
# Revision: 0
# Processed by: cddbd v1.5.2PL0 Copyright (c) Steve Scherf et al.
# Submitted via: ExactAudioCopy v1.2
#
DISCID=d60bad0e
DTITLE=Vance Kelly - How Can I Miss You When You Won't Leave
DYEAR=2017
DGENRE=Blues
TTITLE0=All About Life
TTITLE1=Biscuits, Eggs, And Sausage
TTITLE2=Get Home To My Baby
TTITLE3=How Can I Miss You, When You Won't Leave
TTITLE4=Meet You In The Spring
TTITLE5=Rumble Through Your Drawers
TTITLE6=Moving On
TTITLE7=Count On Me
TTITLE8=Don't Give My Love Away
TTITLE9=Do It Right
TTITLE10=Back On Track
TTITLE11=Sticker Than You
TTITLE12=Come On
TTITLE13=Jamming In The Studio
EXTD=
EXTT0=
EXTT1=
EXTT2=
EXTT3=
EXTT4=
EXTT5=
EXTT6=
EXTT7=
EXTT8=
EXTT9=
EXTT10=
EXTT11=
EXTT12=
EXTT13=
PLAYORDER=
